<?xml version="1.0" encoding="utf-8"?>
<!-- Generator: Adobe Illustrator 21.0.0, SVG Export Plug-In . SVG Version: 6.00 Build 0)  -->
<svg version="1.1" xmlns="http://www.w3.org/2000/svg" xmlns:xlink="http://www.w3.org/1999/xlink" x="0px" y="0px"
	 viewBox="0 0 190.7 183.3" style="enable-background:new 0 0 190.7 183.3;" xml:space="preserve">
<style type="text/css">
	.st0{fill:#EEE0CD;}
	.st1{fill:none;}
	.st2{fill:#FFFFFF;}
	.st3{fill:#F0AAA4;}
	.st4{fill:#F6D913;}
</style>
<g id="Calque_1">
</g>
<g id="Calque_2">
	<g>
		<path class="st0" d="M95.3,131.3L95.3,131.3c-21.1,0-38.1-17.1-38.1-38.1V61c0-21.1,17.1-38.1,38.1-38.1h0
			c21.1,0,38.1,17.1,38.1,38.1v32.2C133.4,114.2,116.4,131.3,95.3,131.3z"/>
		<path d="M95.3,134.3c-22.7,0-41.1-18.5-41.1-41.1V61c0-22.7,18.5-41.1,41.1-41.1c22.7,0,41.1,18.5,41.1,41.1v32.2
			C136.4,115.8,118,134.3,95.3,134.3z M95.3,25.8c-19.4,0-35.1,15.8-35.1,35.1v32.2c0,19.4,15.8,35.1,35.1,35.1
			c19.4,0,35.1-15.8,35.1-35.1V61C130.4,41.6,114.7,25.8,95.3,25.8z"/>
	</g>
	<g>
		<path class="st1" d="M63.2,106.4c-1.1-0.2-1.9-1.1-1.9-2.2V56.4h0.8c-0.4,2.1-0.6,4.3-0.6,6.5v32.2
			C61.5,99.1,62.1,102.8,63.2,106.4z"/>
	</g>
	<g>
		<path class="st2" d="M63.2,56.4v50c-0.2,0-0.4,0-0.6,0c-1.7-3.5-2.6-7.3-2.6-11.2V63c0-2.2,0.3-4.4,0.9-6.5H63.2z"/>
	</g>
	<g>
		<g>
			<path d="M161.5,176.7L161.5,176.7c-4.7,0-8.7-3.6-9.4-8.4c-3.9-28.9-27.8-51.1-56.5-51.1c-28.7,0-52.5,22.3-56.5,51.1
				c-0.7,4.8-4.7,8.4-9.4,8.4h0c-5.7,0-10.2-5.3-9.4-11.2c5.2-38.5,37-68.2,75.3-68.2c38.3,0,70.1,29.7,75.3,68.2
				C171.7,171.4,167.2,176.7,161.5,176.7z"/>
		</g>
	</g>
	<g>
		<circle cx="81.3" cy="61.8" r="3.7"/>
	</g>
	<g>
		<path class="st2" d="M102.6,88.2c0,3.9-3.2,7.1-7.1,7.1s-7.1-3.2-7.1-7.1H102.6z"/>
		<path d="M95.5,96.2c-4.4,0-8.1-3.6-8.1-8.1v-1h16.1v1C103.6,92.6,100,96.2,95.5,96.2z M89.5,89.2c0.5,2.9,3,5.1,6,5.1
			s5.5-2.2,6-5.1H89.5z"/>
	</g>
	<g>
		<g>
			<ellipse transform="matrix(0.7071 -0.7071 0.7071 0.7071 -29.2787 72.7032)" class="st3" cx="73.1" cy="71.7" rx="1" ry="1"/>
		</g>
		<g>
			<ellipse transform="matrix(0.7071 -0.7071 0.7071 0.7071 -31.8381 74.273)" class="st3" cx="73.7" cy="75.6" rx="1" ry="1"/>
		</g>
		<g>
			<ellipse transform="matrix(0.7071 -0.7071 0.7071 0.7071 -29.2127 75.4824)" class="st3" cx="76.5" cy="73" rx="1" ry="1"/>
		</g>
	</g>
	<g>
		<g>
			<ellipse transform="matrix(0.7071 -0.7071 0.7071 0.7071 -16.1726 104.2531)" class="st3" cx="117.8" cy="71.6" rx="1" ry="1"/>
		</g>
		<g>
			<ellipse transform="matrix(0.7071 -0.7071 0.7071 0.7071 -19.0924 104.9529)" class="st3" cx="117.1" cy="75.5" rx="1" ry="1"/>
		</g>
		<g>
			<ellipse transform="matrix(0.7071 -0.7071 0.7071 0.7071 -18.0911 102.2413)" class="st3" cx="114.4" cy="73" rx="1" ry="1"/>
		</g>
	</g>
	<g>
		<circle cx="109.7" cy="61.8" r="3.7"/>
	</g>
	<g>
		<path d="M102.2,73.3c-1.5,3.4-3.8,6.2-6.8,8.3c-3.2,2.3-7.2,3.6-11.4,3.6c-4.4,0-8.5-1.5-11.8-3.9c4.7-3.9,10.3-6.7,16.5-7.9
			c2.3-0.5,4.7-0.7,7.1-0.7C98,72.8,100.1,72.9,102.2,73.3z"/>
	</g>
	<g>
		<path d="M119,81c-3.4,2.6-7.6,4.2-12.2,4.2c-4.2,0-8.2-1.3-11.4-3.6c-2.9-2.1-5.2-4.9-6.7-8.2c2.3-0.5,4.7-0.7,7.1-0.7
			c2.2,0,4.3,0.2,6.4,0.6C108.5,74.4,114.3,77.1,119,81z"/>
	</g>
	<g>
		<path class="st0" d="M138.3,118.2L138.3,118.2c1.9,2.2,5.2,2.4,7.4,0.5v0c2.2-1.9,2.4-5.2,0.5-7.4l0,0c-1.9-2.2-5.2-2.4-7.4-0.5v0
			C136.6,112.7,136.4,116,138.3,118.2z"/>
		<path d="M142.3,123c-0.2,0-0.4,0-0.6,0c-2.2-0.2-4.2-1.2-5.6-2.8v0c-3-3.4-2.6-8.7,0.9-11.6c1.7-1.4,3.8-2.1,6-2
			c2.2,0.2,4.2,1.2,5.6,2.8c3,3.4,2.6,8.7-0.9,11.6C146.1,122.3,144.3,123,142.3,123z M140.6,116.2c0.4,0.5,0.9,0.7,1.5,0.8
			c0.6,0.1,1.2-0.1,1.6-0.5c0.9-0.8,1-2.2,0.2-3.2c-0.4-0.5-0.9-0.7-1.5-0.8c-0.6-0.1-1.2,0.1-1.6,0.5
			C139.9,113.9,139.8,115.3,140.6,116.2L140.6,116.2z"/>
	</g>
	<g>
		<path class="st0" d="M36.9,158.2L36.9,158.2c-1.9,2.2-5.2,2.4-7.4,0.5l-8-6.9c-2.2-1.9-2.4-5.2-0.5-7.4l0,0
			c1.9-2.2,5.2-2.4,7.4-0.5l8,6.9C38.6,152.7,38.8,156,36.9,158.2z"/>
		<path d="M32.9,163c-2,0-3.9-0.7-5.4-2l-8-6.9c-1.7-1.4-2.7-3.4-2.8-5.6c-0.2-2.2,0.5-4.3,2-6c3-3.4,8.2-3.8,11.6-0.9l8,6.9
			c1.7,1.4,2.7,3.4,2.8,5.6s-0.5,4.3-2,6c-1.4,1.7-3.4,2.7-5.6,2.8C33.3,163,33.1,163,32.9,163z M24.9,145.6c-0.6,0-1.3,0.3-1.7,0.8
			c-0.4,0.5-0.6,1-0.5,1.6c0,0.6,0.3,1.1,0.8,1.5l8,6.9c0.5,0.4,1,0.6,1.6,0.5c0.6,0,1.1-0.3,1.5-0.8v0c0.4-0.5,0.6-1,0.5-1.6
			c0-0.6-0.3-1.1-0.8-1.5l-8-6.9C26,145.8,25.5,145.6,24.9,145.6z"/>
	</g>
	<g>
		<path class="st0" d="M54.6,136.3L54.6,136.3c-1.9,2.2-5.2,2.4-7.4,0.5l-8-6.9c-2.2-1.9-2.4-5.2-0.5-7.4l0,0
			c1.9-2.2,5.2-2.4,7.4-0.5l8,6.9C56.3,130.8,56.5,134.2,54.6,136.3z"/>
		<path d="M50.6,141.2c-2,0-3.9-0.7-5.4-2l-8-6.9c-3.4-3-3.8-8.2-0.9-11.6c1.4-1.7,3.4-2.7,5.6-2.8c2.2-0.2,4.3,0.5,6,2l8,6.9
			c3.4,3,3.8,8.2,0.9,11.6c-1.4,1.7-3.4,2.7-5.6,2.8C51.1,141.2,50.8,141.2,50.6,141.2z M42.7,123.8c-0.1,0-0.1,0-0.2,0
			c-0.6,0-1.1,0.3-1.5,0.8c-0.8,0.9-0.7,2.4,0.2,3.2l8,6.9c0.5,0.4,1,0.6,1.6,0.5c0.6,0,1.1-0.3,1.5-0.8h0c0.8-0.9,0.7-2.4-0.2-3.2
			l-8-6.9C43.7,124,43.2,123.8,42.7,123.8z"/>
	</g>
	<g>
		<path class="st0" d="M52.8,118L52.8,118c-1.9,2.2-5.2,2.4-7.4,0.5l0,0c-2.2-1.9-2.4-5.2-0.5-7.4l0,0c1.9-2.2,5.2-2.4,7.4-0.5l0,0
			C54.5,112.5,54.7,115.8,52.8,118z"/>
		<path d="M48.8,122.9c-2,0-3.9-0.7-5.4-2c-3.4-3-3.8-8.2-0.9-11.6c1.4-1.7,3.4-2.7,5.6-2.8c2.2-0.2,4.3,0.5,6,2
			c1.7,1.4,2.7,3.4,2.8,5.6c0.2,2.2-0.5,4.3-2,6c-1.4,1.7-3.4,2.7-5.6,2.8C49.2,122.9,49,122.9,48.8,122.9z M48.8,112.4
			c-0.1,0-0.1,0-0.2,0c-0.6,0-1.1,0.3-1.5,0.8c-0.8,0.9-0.7,2.4,0.2,3.2c0.5,0.4,1,0.6,1.6,0.5c0.6,0,1.1-0.3,1.5-0.8v0
			c0.4-0.5,0.6-1,0.5-1.6c0-0.6-0.3-1.1-0.8-1.5C49.9,112.6,49.4,112.4,48.8,112.4z"/>
	</g>
	<g>
		<path class="st0" d="M48.7,150.6L48.7,150.6c-1.9,2.2-5.2,2.4-7.4,0.5l-14-12.1c-2.2-1.9-2.4-5.2-0.5-7.4h0
			c1.9-2.2,5.2-2.4,7.4-0.5l14,12.1C50.3,145.1,50.6,148.4,48.7,150.6z"/>
		<path d="M44.7,155.5c-2,0-3.9-0.7-5.4-2l-14-12.1c-3.4-3-3.8-8.2-0.9-11.6c1.4-1.7,3.4-2.7,5.6-2.8c2.2-0.2,4.3,0.5,6,2l14,12.1
			c1.7,1.4,2.7,3.4,2.8,5.6c0.2,2.2-0.5,4.3-2,6l0,0c-1.4,1.7-3.4,2.7-5.6,2.8C45.1,155.4,44.9,155.5,44.7,155.5z M30.7,132.9
			c-0.1,0-0.1,0-0.2,0c-0.6,0-1.1,0.3-1.5,0.8c-0.4,0.5-0.6,1-0.5,1.6c0,0.6,0.3,1.1,0.8,1.5l14,12.1c0.5,0.4,1,0.6,1.6,0.5
			c0.6,0,1.1-0.3,1.5-0.8v0c0.4-0.5,0.6-1,0.5-1.6c0-0.6-0.3-1.1-0.8-1.5l-14-12.1C31.8,133,31.2,132.9,30.7,132.9z"/>
	</g>
	<g>
		<path class="st0" d="M154.6,159L154.6,159c1.9,2.2,5.2,2.4,7.4,0.5l8-6.9c2.2-1.9,2.4-5.2,0.5-7.4l0,0c-1.9-2.2-5.2-2.4-7.4-0.5
			l-8,6.9C153,153.5,152.7,156.8,154.6,159z"/>
		<path d="M158.6,163.8c-0.2,0-0.4,0-0.6,0c-2.2-0.2-4.2-1.2-5.6-2.8l0,0c-3-3.4-2.6-8.7,0.9-11.6l8-6.9c3.4-3,8.7-2.6,11.6,0.9
			c3,3.4,2.6,8.7-0.9,11.6l-8,6.9C162.5,163.1,160.6,163.8,158.6,163.8z M156.9,157c0.4,0.5,0.9,0.7,1.5,0.8
			c0.6,0.1,1.2-0.1,1.6-0.5l8-6.9c0.9-0.8,1-2.2,0.2-3.2c-0.8-0.9-2.2-1-3.2-0.2l-8,6.9C156.2,154.6,156.1,156.1,156.9,157z"/>
	</g>
	<g>
		<path class="st0" d="M136.9,137.1L136.9,137.1c1.9,2.2,5.2,2.4,7.4,0.5l8-6.9c2.2-1.9,2.4-5.2,0.5-7.4v0c-1.9-2.2-5.2-2.4-7.4-0.5
			l-8,6.9C135.2,131.6,135,134.9,136.9,137.1z"/>
		<path d="M140.9,141.9c-0.2,0-0.4,0-0.6,0c-2.2-0.2-4.2-1.2-5.6-2.8l0,0c-1.4-1.7-2.1-3.8-2-6c0.2-2.2,1.2-4.2,2.8-5.6l8-6.9
			c1.7-1.4,3.8-2.1,6-2c2.2,0.2,4.2,1.2,5.6,2.8c1.4,1.7,2.1,3.8,2,6c-0.2,2.2-1.2,4.2-2.8,5.6l-8,6.9
			C144.7,141.2,142.8,141.9,140.9,141.9z M148.8,124.5c-0.5,0-1.1,0.2-1.5,0.5l-8,6.9c-0.5,0.4-0.7,0.9-0.8,1.5s0.1,1.2,0.5,1.6l0,0
			c0.4,0.5,0.9,0.7,1.5,0.8c0.6,0.1,1.2-0.1,1.6-0.5l8-6.9c0.5-0.4,0.7-0.9,0.8-1.5s-0.1-1.2-0.5-1.6c-0.4-0.5-0.9-0.7-1.5-0.8
			C149,124.5,148.9,124.5,148.8,124.5z"/>
	</g>
	<g>
		<path class="st0" d="M142.8,151.4L142.8,151.4c1.9,2.2,5.2,2.4,7.4,0.5l14-12.1c2.2-1.9,2.4-5.2,0.5-7.4l0,0
			c-1.9-2.2-5.2-2.4-7.4-0.5l-14,12.1C141.2,145.9,140.9,149.2,142.8,151.4z"/>
		<path d="M146.8,156.2c-0.2,0-0.4,0-0.6,0c-2.2-0.2-4.2-1.2-5.6-2.8l0,0c-3-3.4-2.6-8.7,0.9-11.6l14-12.1c1.7-1.4,3.8-2.1,6-2
			c2.2,0.2,4.2,1.2,5.6,2.8c3,3.4,2.6,8.7-0.9,11.6l-14,12.1C150.7,155.5,148.8,156.2,146.8,156.2z M145.1,149.4
			c0.4,0.5,0.9,0.7,1.5,0.8c0.6,0.1,1.2-0.1,1.6-0.5l14-12.1c0.9-0.8,1-2.2,0.2-3.2c-0.4-0.5-0.9-0.7-1.5-0.8
			c-0.6-0.1-1.2,0.1-1.6,0.5l-14,12.1C144.4,147.1,144.3,148.5,145.1,149.4L145.1,149.4z"/>
	</g>
	<g>
		<path d="M137.8,48.2c-0.3,0.4-0.7,0.7-1,1.1c-3,3-7.3,3.6-10.7,1.4c-4.9-3.1-10.1-5.4-15.6-6.9c-4.5-1.2-9.3-1.9-14.2-1.9
			c-5.4,0-10.6,0.8-15.6,2.3c-5.8,1.7-11.2,4.4-16.2,7.8c-3.6,2.5-8.2,2-11.2-1.3c0-0.1-0.1-0.1-0.1-0.2c-3.9-4.3-3.8-11.5,0-15.8
			c5.9-6.6,13-11.8,20.8-15.3c6.9-3.1,14.4-4.8,22.3-4.8c6.8,0,13.3,1.3,19.4,3.6c8,3,15.3,7.9,21.5,14.1
			C141.2,36.5,141.5,43.7,137.8,48.2z"/>
	</g>
	<g>
		<path d="M69.4,149.1l1.7-7.8h0.9l1.7,7.8h-1.1l-0.3-1.7h-1.5l-0.3,1.7H69.4z M72.2,146.4l-0.5-2.8h0l-0.6,2.8H72.2z"/>
		<path d="M76.5,149.1v-7.8h1.8c1.3,0,2,0.8,2,2.3c0,0.5-0.1,0.9-0.2,1.2c-0.1,0.3-0.4,0.6-0.8,0.8l1.2,3.6h-1.2l-1-3.3h-0.7v3.3
			H76.5z M77.6,142.4v2.4h0.6c0.2,0,0.4,0,0.5-0.1c0.1-0.1,0.2-0.1,0.3-0.2c0.1-0.1,0.1-0.2,0.1-0.4c0-0.2,0-0.3,0-0.5
			c0-0.2,0-0.4,0-0.5c0-0.2-0.1-0.3-0.1-0.4c-0.1-0.2-0.4-0.3-0.8-0.3H77.6z"/>
		<path d="M86.9,146.9v0.5c0,0.2,0,0.5-0.1,0.7c-0.1,0.2-0.2,0.4-0.4,0.6c-0.2,0.2-0.4,0.3-0.6,0.4c-0.2,0.1-0.4,0.1-0.7,0.1
			c-0.2,0-0.4,0-0.6-0.1s-0.4-0.2-0.6-0.3c-0.2-0.1-0.3-0.3-0.4-0.6c-0.1-0.2-0.2-0.5-0.2-0.9v-4.3c0-0.3,0-0.5,0.1-0.7
			c0.1-0.2,0.2-0.4,0.4-0.6s0.4-0.3,0.6-0.4c0.2-0.1,0.5-0.1,0.7-0.1c0.5,0,1,0.2,1.3,0.5c0.2,0.2,0.3,0.4,0.4,0.6
			c0.1,0.2,0.1,0.5,0.1,0.8v0.4h-1.1v-0.4c0-0.2-0.1-0.4-0.2-0.6c-0.1-0.2-0.3-0.2-0.5-0.2c-0.3,0-0.5,0.1-0.6,0.3
			c-0.1,0.2-0.1,0.4-0.1,0.7v4c0,0.2,0,0.4,0.1,0.6s0.3,0.2,0.5,0.2c0.1,0,0.2,0,0.2,0c0.1,0,0.2-0.1,0.2-0.1
			c0.1-0.1,0.1-0.1,0.2-0.2s0.1-0.2,0.1-0.4v-0.4H86.9z"/>
		<path d="M89.9,149.1v-7.8H91v3.4h1.4v-3.4h1.1v7.8h-1.1v-3.5H91v3.5H89.9z"/>
		<path d="M96.7,149.1v-7.8h1.1v7.8H96.7z"/>
		<path d="M105.8,149.1v-6.8h-1.3v-1.1h3.7v1.1H107v6.8H105.8z"/>
		<path d="M110.8,149.1v-7.8h1.1v3.4h1.4v-3.4h1.1v7.8h-1.1v-3.5H112v3.5H110.8z"/>
		<path d="M117.6,149.1v-7.8h3.3v1.1h-2.2v2.3h1.9v1.1h-1.9v2.3h2.2v1.1H117.6z"/>
	</g>
	<g>
		<path d="M67.2,168.3h-1v5c0,0.2-0.2,0.3-0.4,0.3h-2.1c-0.2,0-0.4-0.2-0.4-0.3v-12.6c0-0.2,0.2-0.3,0.4-0.3h4.2c0.8,0,4.6,0,4.6,4
			c0,2-1,3.1-2.3,3.6c0.4,0.9,0.8,1.8,1.2,2.7l1.2,2.6c0.1,0.2,0,0.5-0.3,0.5h-2.3c-0.1,0-0.3-0.1-0.4-0.2L67.2,168.3z M66.3,165.8
			h1.7c0.5,0,1.7-0.1,1.7-1.3c0-1.2-1.4-1.4-1.7-1.4h-1.7V165.8z"/>
		<path d="M78.4,160.7c0-0.2,0.2-0.3,0.4-0.3h2.1c0.2,0,0.4,0.2,0.4,0.3v12.6c0,0.2-0.2,0.3-0.4,0.3h-2.1c-0.2,0-0.4-0.2-0.4-0.3
			V160.7z"/>
		<path d="M90,160.4c3.2,0,7.7,0.7,7.7,6.6c0,5.6-4.4,6.7-7.7,6.7H88c-0.2,0-0.4-0.2-0.4-0.3v-12.6c0-0.2,0.2-0.3,0.4-0.3H90z
			 M90.4,171c1.5,0,4.4-0.4,4.4-4c0-3-1.7-4-4.1-4c-0.2,0-0.2,0-0.3,0V171z"/>
		<path d="M106.8,163.1v2.6h4.8c0.2,0,0.4,0.2,0.4,0.3v2c0,0.2-0.1,0.3-0.4,0.3h-4.8v2.6h5.9c0.2,0,0.4,0.2,0.4,0.3v2
			c0,0.2-0.2,0.3-0.4,0.3h-8.4c-0.2,0-0.4-0.2-0.4-0.3v-12.6c0-0.2,0.2-0.3,0.4-0.3h8.4c0.2,0,0.4,0.2,0.4,0.3v2.1
			c0,0.2-0.2,0.3-0.4,0.3H106.8z"/>
		<path d="M122.7,168.3h-1v5c0,0.2-0.2,0.3-0.4,0.3h-2.1c-0.2,0-0.4-0.2-0.4-0.3v-12.6c0-0.2,0.2-0.3,0.4-0.3h4.2c0.8,0,4.6,0,4.6,4
			c0,2-1,3.1-2.3,3.6c0.4,0.9,0.8,1.8,1.2,2.7l1.2,2.6c0.1,0.2,0,0.5-0.3,0.5h-2.3c-0.1,0-0.3-0.1-0.4-0.2L122.7,168.3z
			 M121.7,165.8h1.7c0.5,0,1.7-0.1,1.7-1.3c0-1.2-1.4-1.4-1.7-1.4h-1.7V165.8z"/>
	</g>
	<g>
		<path class="st2" d="M60.1,59.2c6.7-2.9,13.9-4.8,21.4-5.4c-7.7,1.5-14.9,4.2-21.4,8"/>
	</g>
	<g>
		<path class="st4" d="M139.7,56.8c1.7,1.4,0.1,4.2-1.9,3.3c-12.9-6.1-27.3-9.5-42.4-9.5s-29.5,3.4-42.4,9.5c-2,0.9-3.6-1.8-1.9-3.3
			C63,46.6,78.5,40.4,95.3,40.4S127.6,46.6,139.7,56.8z"/>
		<path d="M138.6,62.2c-0.6,0-1.1-0.1-1.7-0.4c-13.1-6.2-27.1-9.3-41.6-9.3c-14.5,0-28.5,3.1-41.6,9.3c-1.8,0.8-3.8,0.3-4.8-1.4
			c-1.1-1.7-0.8-3.9,0.8-5.2c12.8-10.8,29.1-16.8,45.7-16.8c16.6,0,32.8,6,45.7,16.8l0,0c1.5,1.3,1.9,3.5,0.8,5.2
			C141,61.6,139.8,62.2,138.6,62.2z M95.3,48.5c14.9,0,29.2,3.2,42.7,9.4c-12.1-10-27.2-15.5-42.7-15.5c-15.5,0-30.6,5.5-42.7,15.5
			C66.1,51.7,80.4,48.5,95.3,48.5z"/>
	</g>
	<g>
		<path d="M95.5,18.7L95.5,18.7c-1.3,0-2.4-1.1-2.4-2.4v-3.4c0-1.3,1.1-2.4,2.4-2.4l0,0c1.3,0,2.4,1.1,2.4,2.4v3.4
			C97.9,17.7,96.8,18.7,95.5,18.7z"/>
	</g>
</g>
</svg>
