<?xml version="1.0" encoding="utf-8"?>
<!-- Generator: Adobe Illustrator 21.0.0, SVG Export Plug-In . SVG Version: 6.00 Build 0)  -->
<svg version="1.1" id="Layer_1" xmlns="http://www.w3.org/2000/svg" xmlns:xlink="http://www.w3.org/1999/xlink" x="0px" y="0px"
	 viewBox="0 0 71.5 126.9" style="enable-background:new 0 0 71.5 126.9;" xml:space="preserve">
<style type="text/css">
	.st0{fill:url(#SVGID_1_);}
	.st1{fill:url(#SVGID_2_);}
	.st2{fill:url(#SVGID_3_);}
	.st3{fill:url(#SVGID_4_);}
	.st4{fill:url(#SVGID_5_);}
	.st5{fill:url(#SVGID_6_);}
	.st6{fill:url(#SVGID_7_);}
	.st7{fill:url(#SVGID_8_);}
	.st8{fill:url(#SVGID_9_);}
	.st9{fill:url(#SVGID_10_);}
	.st10{fill:url(#SVGID_11_);}
	.st11{fill:url(#SVGID_12_);}
	.st12{fill:url(#SVGID_13_);}
	.st13{fill:url(#SVGID_14_);}
	.st14{fill:#F15A29;}
	.st15{fill:url(#SVGID_15_);}
	.st16{fill:url(#SVGID_16_);}
	.st17{fill:url(#SVGID_17_);}
	.st18{fill:#474747;}
	.st19{fill:url(#SVGID_18_);}
	.st20{fill:url(#SVGID_19_);}
	.st21{fill:url(#SVGID_20_);}
	.st22{fill:url(#SVGID_21_);}
	.st23{fill:url(#SVGID_22_);}
	.st24{fill:url(#SVGID_23_);}
	.st25{fill:#595959;}
	.st26{fill:url(#SVGID_24_);}
	.st27{fill:url(#SVGID_25_);}
	.st28{fill:#3C2415;}
	.st29{fill:#C96E00;}
	.st30{fill:#FBB040;}
	.st31{fill:#66493A;}
	.st32{fill:url(#SVGID_26_);}
	.st33{fill:url(#SVGID_27_);}
</style>
<g>
	<g>
		<radialGradient id="SVGID_1_" cx="34.9002" cy="63.264" r="44.0181" gradientUnits="userSpaceOnUse">
			<stop  offset="0" style="stop-color:#FFBA00"/>
			<stop  offset="1" style="stop-color:#FFA100"/>
		</radialGradient>
		<path class="st0" d="M59.6,22.8c-0.6-5.1-1.5-7.8-3.1-9.9c-0.7,0.2-1.4,0-2-0.4l-5.8-3.7c-0.6-0.5-1-1.2-1.1-1.9
			c-0.3-0.1-0.6-0.2-0.8-0.3v4.9H23V6.5c-0.3,0.1-0.6,0.2-0.8,0.3c-0.1,0.8-0.5,1.5-1.1,1.9l-5.8,3.7c-0.6,0.5-1.3,0.6-2,0.4
			c-1.6,2.1-2.5,4.8-3.1,9.9C8.7,36.4,9.7,57.7,9.7,62.9c-0.3,28,0.9,45.1,2.7,51c0.3,1.1,1.2,2,2.3,2.8c0.2-0.1,0.6-0.2,0.9-0.2
			c2.1,0,3.1,1.4,5.4,1c1.5-0.3,2,1,2.2,2c1.4,0.2,2.7,0.4,4,0.5c0.2-0.3,0.6-0.5,0.9-0.5h13.4c0.4,0,0.7,0.2,0.9,0.5
			c1-0.1,2-0.2,3-0.4c0.1-0.9,0.6-2.4,2.2-2.1c2.3,0.4,3.3-1,5.4-1c0.6,0,1.1,0.2,1.4,0.5c1.4-0.8,2.5-1.9,2.9-3.1
			c1.8-5.9,3.1-23,2.7-51C60.1,57.7,61.1,36.4,59.6,22.8z"/>
		<linearGradient id="SVGID_2_" gradientUnits="userSpaceOnUse" x1="22.9764" y1="8.1121" x2="46.8231" y2="8.1121">
			<stop  offset="0" style="stop-color:#525956"/>
			<stop  offset="1" style="stop-color:#2C2E2E"/>
		</linearGradient>
		<path class="st1" d="M46.8,11.4V6.5c-6.8-2.2-17-2.2-23.8,0v4.9H46.8z"/>
		
			<radialGradient id="SVGID_3_" cx="34.9" cy="-5787.6416" r="24.8366" gradientTransform="matrix(1 0 0 4.0177 0 23314.9727)" gradientUnits="userSpaceOnUse">
			<stop  offset="0" style="stop-color:#FFE800"/>
			<stop  offset="1" style="stop-color:#FFC552"/>
		</radialGradient>
		<path class="st2" d="M58.1,23.6c-0.9-8.5-2.8-9.2-7.4-13.2C44.6,5,25.2,5,19,10.4c-4.6,4-6.4,4.7-7.4,13.2
			c-1.4,13.1-0.5,33.6-0.6,38.7c-0.3,27,1,43.4,2.6,49.1c1.9,6.6,21.2,6.2,21.2,6.2c0,0,19.3,0.4,21.2-6.2c1.7-5.7,3-22.1,2.6-49.1
			C58.7,57.2,59.6,36.7,58.1,23.6z"/>
		<linearGradient id="SVGID_4_" gradientUnits="userSpaceOnUse" x1="17.4412" y1="53.5973" x2="52.3592" y2="53.5973">
			<stop  offset="0" style="stop-color:#000000"/>
			<stop  offset="1" style="stop-color:#1B1C1C"/>
		</linearGradient>
		<path class="st3" d="M25.4,51.8c-4,0.6-6.9,1.8-8,2.2l0.3,1.9c0,0,3.1-1.7,8.1-2.4c4.2-0.7,13.9-0.7,18.2,0
			c4.9,0.8,8.1,2.4,8.1,2.4l0.3-1.9c-1.1-0.5-3.9-1.6-8-2.2C39.9,51.1,29.9,51.1,25.4,51.8z"/>
		<linearGradient id="SVGID_5_" gradientUnits="userSpaceOnUse" x1="14.6836" y1="35.2722" x2="55.1167" y2="35.2722">
			<stop  offset="0" style="stop-color:#000000"/>
			<stop  offset="1" style="stop-color:#1B1C1C"/>
		</linearGradient>
		<path class="st4" d="M16.2,37.8c1.6-0.7,4.3-1.9,8.5-2.9c6.1-1.4,14.2-1.4,20.3,0c4.3,1,7,2.1,8.5,2.9c0.7,0.3,1.1,0.6,1.3,0.8
			l0-0.1c0,0,0.3-1.3,0.1-1.7c-0.2-0.3-0.6-0.6-1.5-1C52,35.1,49.3,34,45.1,33c-6.1-1.4-14.2-1.4-20.3,0c-4.3,1-7,2.1-8.5,2.9
			c-0.8,0.4-1.3,0.7-1.5,1c-0.2,0.4,0.1,1.7,0.1,1.7l0,0.1C15.1,38.3,15.5,38.1,16.2,37.8z"/>
		<linearGradient id="SVGID_6_" gradientUnits="userSpaceOnUse" x1="14.8592" y1="43.9494" x2="54.9422" y2="43.9494">
			<stop  offset="0" style="stop-color:#363B39"/>
			<stop  offset="1" style="stop-color:#1B1C1C"/>
		</linearGradient>
		<path class="st5" d="M25.4,51.8c4.4-0.7,14.5-0.7,19,0c4,0.6,6.9,1.8,8,2.2l2.6-15.4c-0.2-0.3-0.7-0.5-1.3-0.8
			c-1.6-0.7-4.3-1.9-8.5-2.9c-6.1-1.4-14.2-1.4-20.3,0c-4.3,1-7,2.1-8.5,2.9c-0.7,0.3-1.1,0.6-1.3,0.8L17.4,54
			C18.5,53.5,21.4,52.4,25.4,51.8z"/>
		<linearGradient id="SVGID_7_" gradientUnits="userSpaceOnUse" x1="17.9395" y1="103.0785" x2="51.8605" y2="103.0785">
			<stop  offset="0" style="stop-color:#000000"/>
			<stop  offset="1" style="stop-color:#1B1C1C"/>
		</linearGradient>
		<path class="st6" d="M51.1,96.4c-0.1-0.7-0.3-1.3-0.5-2c0,0-0.2,0.1-0.7,0.3c-1.7,0.7-6.5,2.4-15,2.4c-7.8,0-13.2-1.7-15-2.4
			c-0.5-0.2-0.7-0.3-0.7-0.3c-0.2,0.6-0.3,1.3-0.4,1.9c-1.3,6.3-0.7,12.4-0.7,12.4s3.4,1.6,8.3,2.5c3.8,0.7,13.2,0.7,17,0
			c4.9-0.9,8.3-2.5,8.3-2.5S52.3,102.7,51.1,96.4z M50.5,107.1c0,0-3.2,1.6-7.7,2.5c-3.5,0.7-12.3,0.7-15.8,0
			c-4.5-0.9-7.7-2.5-7.7-2.5s-0.5-4.9,0.3-10.5c2.9,0.8,8.2,1.9,15.3,1.9c7.6,0,12.7-1,15.3-1.8C51,102.2,50.5,107.1,50.5,107.1z"/>
		<linearGradient id="SVGID_8_" gradientUnits="userSpaceOnUse" x1="19.1259" y1="103.3621" x2="50.6744" y2="103.3621">
			<stop  offset="0" style="stop-color:#363B39"/>
			<stop  offset="1" style="stop-color:#1B1C1C"/>
		</linearGradient>
		<path class="st7" d="M19.6,96.5c-0.8,5.6-0.3,10.5-0.3,10.5s3.2,1.6,7.7,2.5c3.5,0.7,12.3,0.7,15.8,0c4.5-0.9,7.7-2.5,7.7-2.5
			s0.5-4.9-0.3-10.5c-2.7,0.8-7.7,1.8-15.3,1.8C27.8,98.5,22.4,97.3,19.6,96.5z"/>
		<g>
			<linearGradient id="SVGID_9_" gradientUnits="userSpaceOnUse" x1="13.3108" y1="55.4893" x2="17.2615" y2="55.4893">
				<stop  offset="0" style="stop-color:#363B39"/>
				<stop  offset="1" style="stop-color:#1B1C1C"/>
			</linearGradient>
			<path class="st8" d="M13.9,71.7l3.4,1.2l-0.6-16l-3.2-18.9c0,0-0.3,4.8,0,11.8c0.2,4.4,0.7,10.4,0.7,14.3
				C14.1,67.9,14,70.4,13.9,71.7z"/>
			<linearGradient id="SVGID_10_" gradientUnits="userSpaceOnUse" x1="52.5379" y1="55.4893" x2="56.4896" y2="55.4893">
				<stop  offset="0" style="stop-color:#363B39"/>
				<stop  offset="1" style="stop-color:#1B1C1C"/>
			</linearGradient>
			<path class="st9" d="M55.9,71.7l-3.4,1.2l0.6-16l3.2-18.9c0,0,0.3,4.8,0,11.8c-0.2,4.4-0.7,10.4-0.7,14.3
				C55.7,67.9,55.8,70.5,55.9,71.7z"/>
		</g>
		<g>
			<linearGradient id="SVGID_11_" gradientUnits="userSpaceOnUse" x1="13.5916" y1="84.8119" x2="17.6776" y2="84.8119">
				<stop  offset="0" style="stop-color:#363B39"/>
				<stop  offset="1" style="stop-color:#1B1C1C"/>
			</linearGradient>
			<path class="st10" d="M13.8,73.2l3.5,1.5l0.4,13.3c0,0-0.3,1.7-1.6,4.4c-1.5,3.1-2.3,4-2.3,4S13.4,78.2,13.8,73.2z"/>
			<linearGradient id="SVGID_12_" gradientUnits="userSpaceOnUse" x1="52.1229" y1="84.8119" x2="56.2074" y2="84.8119">
				<stop  offset="0" style="stop-color:#363B39"/>
				<stop  offset="1" style="stop-color:#1B1C1C"/>
			</linearGradient>
			<path class="st11" d="M56,73.2l-3.5,1.5l-0.4,13.3c0,0,0.3,1.7,1.6,4.4c1.5,3.1,2.3,4,2.3,4S56.4,78.2,56,73.2z"/>
		</g>
		<g>
			
				<radialGradient id="SVGID_13_" cx="17.6927" cy="21.1491" r="3.7108" gradientTransform="matrix(1 0 0 1.0961 0 -13.3255)" gradientUnits="userSpaceOnUse">
				<stop  offset="0" style="stop-color:#FFFFFF"/>
				<stop  offset="1" style="stop-color:#D2D6D5"/>
			</radialGradient>
			<path class="st12" d="M15.2,12.4l5.8-3.7c0.6-0.5,1-1.2,1.1-1.9c-1.7,0.6-3.1,1.4-4.1,2.3c-2,1.7-3.6,2.3-4.7,3.8
				C13.9,13,14.6,12.9,15.2,12.4z"/>
			
				<radialGradient id="SVGID_14_" cx="52.1077" cy="21.1491" r="3.7108" gradientTransform="matrix(1 0 0 1.0961 0 -13.3255)" gradientUnits="userSpaceOnUse">
				<stop  offset="0" style="stop-color:#FFFFFF"/>
				<stop  offset="1" style="stop-color:#D2D6D5"/>
			</radialGradient>
			<path class="st13" d="M48.7,8.7l5.8,3.7c0.6,0.5,1.3,0.6,2,0.4c-1.2-1.5-2.7-2.1-4.7-3.8c-1.1-0.9-2.5-1.7-4.1-2.3
				C47.8,7.5,48.1,8.2,48.7,8.7z"/>
		</g>
		<path class="st14" d="M21,117.6c-2.3,0.4-3.3-1-5.4-1c-0.4,0-0.7,0.1-0.9,0.2c2.1,1.4,5.3,2.2,8.5,2.8
			C23,118.6,22.5,117.3,21,117.6z"/>
		<path class="st14" d="M47.8,117.6c-1.6-0.3-2.1,1.2-2.2,2.1c3.3-0.5,6.7-1.3,9-2.6c-0.3-0.3-0.7-0.5-1.4-0.5
			C51.1,116.5,50.1,118,47.8,117.6z"/>
		<linearGradient id="SVGID_15_" gradientUnits="userSpaceOnUse" x1="34.6868" y1="39.8849" x2="46.1133" y2="48.0098">
			<stop  offset="0" style="stop-color:#363B39"/>
			<stop  offset="1" style="stop-color:#000000"/>
		</linearGradient>
		<path class="st15" d="M53.6,37.8c-1.6-0.7-4.3-1.9-8.5-2.9c-1.5-0.3-3.1-0.6-4.8-0.8C36,39,30.9,47.8,28.8,51.5
			c5-0.3,12-0.2,15.5,0.3c4,0.6,6.9,1.8,8,2.2l2.6-15.4C54.7,38.3,54.3,38.1,53.6,37.8z"/>
		<linearGradient id="SVGID_16_" gradientUnits="userSpaceOnUse" x1="18.2713" y1="74.7732" x2="51.5291" y2="74.7732">
			<stop  offset="0" style="stop-color:#FFFA61"/>
			<stop  offset="1" style="stop-color:#FFC552"/>
		</linearGradient>
		<path class="st16" d="M34.9,54.7c-12.5-0.3-16.6,2.1-16.6,2.1s0.2,31.6,1.1,34.7c0.6,2.1,8.5,3.1,13.5,3.5H37
			c5-0.4,12.8-1.3,13.5-3.5c1-3.1,1.1-34.7,1.1-34.7S47.3,54.4,34.9,54.7z"/>
		<linearGradient id="SVGID_17_" gradientUnits="userSpaceOnUse" x1="29.0178" y1="102.8698" x2="49.892" y2="137.1323">
			<stop  offset="0" style="stop-color:#FFFA61"/>
			<stop  offset="1" style="stop-color:#FFC552"/>
		</linearGradient>
		<path class="st17" d="M37.1,116.5c12.1-0.4,17.4-4,17.4-4l-2.4-3c-7.5,4.4-17.2,3.5-17.2,3.5l0,0c0,0-9.7,0.9-17.2-3.5l-2.4,3
			c0,0,5.4,3.6,17.4,4c0.6,0,2.2,0,2.2,0l0,0C35.7,116.5,36.4,116.5,37.1,116.5z"/>
		<path class="st18" d="M21,9.7c0,0-7.5,3.2-8.3,12c-0.8,9-0.7,13.5-0.7,13.5S14.6,14.5,21,9.7z"/>
		<path class="st18" d="M48.8,9.7c0,0,7.5,3.2,8.3,12c0.8,9,0.7,13.5,0.7,13.5S55.2,14.5,48.8,9.7z"/>
		<linearGradient id="SVGID_18_" gradientUnits="userSpaceOnUse" x1="55.7174" y1="39.969" x2="60.2215" y2="48.6898">
			<stop  offset="0" style="stop-color:#363B39"/>
			<stop  offset="1" style="stop-color:#1B1C1C"/>
		</linearGradient>
		<path class="st19" d="M56.2,39.2c0,0,1.9,0.4,2,2.1c0,1.7-1.9,5.3-2,3C56.2,42.2,56,39.9,56.2,39.2z"/>
		<radialGradient id="SVGID_19_" cx="60.3444" cy="42.5803" r="2.248" gradientUnits="userSpaceOnUse">
			<stop  offset="0" style="stop-color:#FFBA00"/>
			<stop  offset="1" style="stop-color:#FFA100"/>
		</radialGradient>
		<path class="st20" d="M63,43.1c-0.4-0.6-4.3-1.9-4.3-1.9c-0.8-0.3-1,0.5-1.1,1.1l5.6,1.8C63.2,43.8,63.2,43.4,63,43.1z"/>
		<linearGradient id="SVGID_20_" gradientUnits="userSpaceOnUse" x1="57.4716" y1="43.3355" x2="63.1733" y2="43.3355">
			<stop  offset="0" style="stop-color:#363B39"/>
			<stop  offset="1" style="stop-color:#1B1C1C"/>
		</linearGradient>
		<path class="st21" d="M57.5,42.2c-0.1,0.4,0,0.7,0,0.7l5.5,1.4c0,0,0.1-0.2,0.1-0.4L57.5,42.2z"/>
		<linearGradient id="SVGID_21_" gradientUnits="userSpaceOnUse" x1="12.5258" y1="40.7219" x2="16.4544" y2="49.3457">
			<stop  offset="0" style="stop-color:#363B39"/>
			<stop  offset="1" style="stop-color:#1B1C1C"/>
		</linearGradient>
		<path class="st22" d="M13.6,39.1c0,0-2.1,0.4-2.1,2.1c0,1.7,2.1,5.3,2.1,3C13.6,42.1,13.7,39.8,13.6,39.1z"/>
		<radialGradient id="SVGID_22_" cx="9.4429" cy="42.5001" r="2.2643" gradientUnits="userSpaceOnUse">
			<stop  offset="0" style="stop-color:#FFBA00"/>
			<stop  offset="1" style="stop-color:#FFA100"/>
		</radialGradient>
		<path class="st23" d="M11.1,41.1c0,0-3.9,1.3-4.3,1.9c-0.3,0.4-0.2,0.8-0.1,1.1l5.6-1.8C12.2,41.6,11.9,40.8,11.1,41.1z"/>
		<linearGradient id="SVGID_23_" gradientUnits="userSpaceOnUse" x1="6.609" y1="43.2498" x2="12.3119" y2="43.2498">
			<stop  offset="0" style="stop-color:#363B39"/>
			<stop  offset="1" style="stop-color:#1B1C1C"/>
		</linearGradient>
		<path class="st24" d="M6.7,44c0.1,0.2,0.1,0.3,0.1,0.3l5.5-1.4c0,0,0-0.3,0-0.7L6.7,44z"/>
		<path class="st25" d="M9.7,62.1c-0.3,0-0.5,0.2-0.5,0.5v4.5c0,0.3,0.2,0.5,0.5,0.5V62.1z"/>
		<path class="st25" d="M10,84.6c-0.3,0-0.5,0.2-0.5,0.5v4.5c0,0.3,0.2,0.5,0.5,0.5V84.6z"/>
		<path class="st25" d="M60.1,62.1c0.3,0,0.5,0.2,0.5,0.5v4.5c0,0.3-0.2,0.5-0.5,0.5V62.1z"/>
		<path class="st25" d="M59.8,84.6c0.3,0,0.5,0.2,0.5,0.5v4.5c0,0.3-0.2,0.5-0.5,0.5V84.6z"/>
		<linearGradient id="SVGID_24_" gradientUnits="userSpaceOnUse" x1="27.2244" y1="119.9453" x2="42.5594" y2="119.9453">
			<stop  offset="0" style="stop-color:#363B39"/>
			<stop  offset="1" style="stop-color:#1B1C1C"/>
		</linearGradient>
		<path class="st26" d="M41.6,119.5H28.2c-0.4,0-0.7,0.2-0.9,0.5c4.2,0.4,7.7,0.3,7.7,0.3c0,0,3.4,0.1,7.7-0.3
			C42.3,119.7,42,119.5,41.6,119.5z"/>
		<linearGradient id="SVGID_25_" gradientUnits="userSpaceOnUse" x1="27.0383" y1="88.0113" x2="35.4975" y2="100.983">
			<stop  offset="0" style="stop-color:#363B39"/>
			<stop  offset="1" style="stop-color:#000000"/>
		</linearGradient>
		<path class="st27" d="M50.2,96.6c-2.7,0.8-7.7,1.8-15.3,1.8c-1.6,0-3-0.1-4.4-0.1c-4.4,2.1-7,8.5-7.7,10.2
			c1.2,0.4,2.6,0.8,4.2,1.1c3.5,0.7,12.3,0.7,15.8,0c4.5-0.9,7.7-2.5,7.7-2.5S51,102.2,50.2,96.6z"/>
		<g>
			<g>
				<path class="st28" d="M42.4,67.7h-15V62h15V67.7z M28.1,67h13.5v-4.2H28.1V67z"/>
			</g>
			<rect x="27.8" y="65" class="st29" width="14.1" height="2.3"/>
			<rect x="27.8" y="62.4" class="st30" width="14.1" height="2.3"/>
			<g>
				<rect x="30.2" y="65.4" class="st28" width="1.9" height="0.8"/>
				<rect x="28.4" y="66.3" class="st28" width="1.9" height="0.8"/>
				<rect x="39.6" y="66.3" class="st28" width="1.9" height="0.8"/>
				<polygon class="st28" points="35.8,65.5 34,65.5 34,66.3 32.2,66.3 32.2,67.1 34,67.1 34,66.3 35.8,66.3 35.8,67.1 37.6,67.1 
					37.6,66.3 35.8,66.3 				"/>
				<rect x="37.7" y="65.4" class="st28" width="1.9" height="0.8"/>
			</g>
			<g>
				<rect x="30.2" y="63.4" class="st28" width="1.9" height="0.8"/>
				<rect x="28.4" y="62.6" class="st28" width="1.9" height="0.8"/>
				<rect x="39.6" y="62.6" class="st28" width="1.9" height="0.8"/>
				<polygon class="st28" points="35.8,64.2 34,64.2 34,63.4 32.2,63.4 32.2,62.6 34,62.6 34,63.4 35.8,63.4 35.8,62.6 37.6,62.6 
					37.6,63.4 35.8,63.4 				"/>
				<rect x="37.7" y="63.4" class="st28" width="1.9" height="0.8"/>
			</g>
			<rect x="27.4" y="64.5" class="st31" width="15" height="0.8"/>
		</g>
		
			<radialGradient id="SVGID_26_" cx="27.1149" cy="48.301" r="5.0471" gradientTransform="matrix(2.312 0 0 0.6091 -27.7871 33.8436)" gradientUnits="userSpaceOnUse">
			<stop  offset="0" style="stop-color:#FFE800"/>
			<stop  offset="8.564332e-02" style="stop-color:#CFBC00"/>
			<stop  offset="0.194" style="stop-color:#998B00"/>
			<stop  offset="0.3035" style="stop-color:#6A6000"/>
			<stop  offset="0.4119" style="stop-color:#443E00"/>
			<stop  offset="0.5189" style="stop-color:#262300"/>
			<stop  offset="0.6242" style="stop-color:#110F00"/>
			<stop  offset="0.7269" style="stop-color:#040400"/>
			<stop  offset="0.8242" style="stop-color:#000000"/>
		</radialGradient>
		<ellipse class="st32" cx="34.9" cy="63.3" rx="11.7" ry="3.1"/>
		
			<radialGradient id="SVGID_27_" cx="27.1149" cy="41.0661" r="5.0598" gradientTransform="matrix(2.312 0 0 0.4905 -27.7871 46.5288)" gradientUnits="userSpaceOnUse">
			<stop  offset="0" style="stop-color:#FFC900"/>
			<stop  offset="8.564332e-02" style="stop-color:#CFA300"/>
			<stop  offset="0.194" style="stop-color:#997800"/>
			<stop  offset="0.3035" style="stop-color:#6A5300"/>
			<stop  offset="0.4119" style="stop-color:#443500"/>
			<stop  offset="0.5189" style="stop-color:#261E00"/>
			<stop  offset="0.6242" style="stop-color:#110D00"/>
			<stop  offset="0.7269" style="stop-color:#040300"/>
			<stop  offset="0.8242" style="stop-color:#000000"/>
		</radialGradient>
		<ellipse class="st33" cx="34.9" cy="66.7" rx="11.7" ry="2.5"/>
	</g>
</g>
</svg>
