<?xml version="1.0" encoding="utf-8"?>
<!-- Generator: Adobe Illustrator 21.0.0, SVG Export Plug-In . SVG Version: 6.00 Build 0)  -->
<svg version="1.1" id="Capa_1" xmlns="http://www.w3.org/2000/svg" xmlns:xlink="http://www.w3.org/1999/xlink" x="0px" y="0px"
	 viewBox="0 0 153.6 376.2" style="enable-background:new 0 0 153.6 376.2;" xml:space="preserve">
<style type="text/css">
	.st0{fill:#F5FD5E;}
	.st1{fill:#F2F286;}
	.st2{fill:#555160;}
	.st3{fill:none;}
</style>
<g>
	<path class="st0" d="M42.7,162.9h68.3c18.8,0,34.1,15.3,34.1,34.1v136.5c0,18.9-15.3,34.1-34.1,34.1H42.7
		c-18.9,0-34.1-15.3-34.1-34.1V197C8.5,178.2,23.8,162.9,42.7,162.9z"/>
</g>
<g>
	<path class="st1" d="M8.5,333.5c0,18.9,15.3,34.1,34.1,34.1h68.3c18.9,0,34.1-15.3,34.1-34.1v-28.9c-45.1,7.9-90.8,11.9-136.5,11.9
		L8.5,333.5L8.5,333.5z"/>
</g>
<g>
	<polygon class="st2" points="59.7,0 93.9,1.5 93.9,162.9 59.7,162.9 	"/>
</g>
<path class="st3" d="M51.2,0v154.3h-8.5C19.1,154.4,0,173.5,0,197v136.5c0,23.6,19.1,42.6,42.7,42.7h68.3
	c23.6,0,42.6-19.1,42.7-42.7V197c0-23.6-19.1-42.6-42.7-42.7h-8.5V0 M68.3,27.6l17.1,0.7v126H68.3V27.6z M17.1,197
	c0-14.1,11.5-25.6,25.6-25.6h68.3c14.1,0,25.6,11.5,25.6,25.6v136.5c0,14.1-11.5,25.6-25.6,25.6H42.7c-14.1,0-25.6-11.5-25.6-25.6
	V197z"/>
<path d="M42.7,205.5h68.3c4.7,0,8.5-3.8,8.5-8.5s-3.8-8.5-8.5-8.5H42.7c-4.7,0-8.5,3.8-8.5,8.5S38,205.5,42.7,205.5z"/>
<path d="M42.7,239.7h68.3c4.7,0,8.5-3.8,8.5-8.5s-3.8-8.5-8.5-8.5H42.7c-4.7,0-8.5,3.8-8.5,8.5S38,239.7,42.7,239.7z"/>
<path d="M42.7,273.8h68.3c4.7,0,8.5-3.8,8.5-8.5s-3.8-8.5-8.5-8.5H42.7c-4.7,0-8.5,3.8-8.5,8.5S38,273.8,42.7,273.8z"/>
<path d="M42.7,307.9h68.3c4.7,0,8.5-3.8,8.5-8.5s-3.8-8.5-8.5-8.5H42.7c-4.7,0-8.5,3.8-8.5,8.5S38,307.9,42.7,307.9z"/>
<path d="M42.7,342.1h68.3c4.7,0,8.5-3.8,8.5-8.5s-3.8-8.5-8.5-8.5H42.7c-4.7,0-8.5,3.8-8.5,8.5C34.1,338.3,38,342.1,42.7,342.1z"/>
</svg>
